<svg xmlns="http://www.w3.org/2000/svg" version="1.1" xmlns:xlink="http://www.w3.org/1999/xlink" xmlns:svgjs="http://svgjs.dev/svgjs" width="1000" height="202" viewBox="0 0 1000 202"><g transform="matrix(1,0,0,1,-0.6060606060606233,0.10735236227887412)"><svg viewBox="0 0 396 80" data-background-color="#ffffff" preserveAspectRatio="xMidYMid meet" height="202" width="1000" xmlns="http://www.w3.org/2000/svg" xmlns:xlink="http://www.w3.org/1999/xlink"><defs></defs><g id="tight-bounds" transform="matrix(1,0,0,1,0.2400000000000091,-0.042515787041139674)"><svg viewBox="0 0 395.52 80.0850315740823" height="80.0850315740823" width="395.52"><g><svg viewBox="0 0 562.0506094725658 113.80420915716687" height="80.0850315740823" width="395.52"><g><rect width="4.706016007159006" height="113.80420915716687" x="149.5051798341006" y="0" fill="#ff5858" opacity="1" stroke-width="0" stroke="transparent" fill-opacity="1" class="rect-o-0" data-fill-palette-color="primary" rx="1%" id="o-0" data-palette-color="#ff5858"></rect></g><g transform="matrix(1,0,0,1,166.5306094725659,0.28309504765464055)"><svg viewBox="0 0 395.52 113.23801906185759" height="113.23801906185759" width="395.52"><g><svg viewBox="0 0 395.52 113.23801906185759" height="113.23801906185759" width="395.52"><g><svg viewBox="0 0 395.52 113.23801906185759" height="113.23801906185759" width="395.52"><g transform="matrix(1,0,0,1,0,0)"><svg width="395.52" viewBox="1.4999990463256836 -34.900001525878906 267.550048828125 73.60000610351562" height="113.23801906185759" data-palette-color="#ff5858"><svg></svg><svg></svg><g class="undefined-text-0" data-fill-palette-color="primary" id="text-0"><path d="M20.2-28.6v0c-1-0.433-2.5-0.65-4.5-0.65-2 0-3.617 0.867-4.85 2.6-1.233 1.733-1.85 4.767-1.85 9.1 0 4.333 0.593 7.407 1.78 9.22 1.18 1.82 2.937 2.73 5.27 2.73v0c3.567 0 6.767-0.533 9.6-1.6v0l1.8 4.45c-3.533 2.1-7.683 3.15-12.45 3.15-4.767 0-8.21-1.35-10.33-4.05-2.113-2.7-3.17-7.117-3.17-13.25 0-6.133 1.31-10.667 3.93-13.6 2.613-2.933 6.287-4.4 11.02-4.4v0c3.8 0 7.417 1.05 10.85 3.15v0c0 0.2 0 0.583 0 1.15 0 0.567-0.117 1.533-0.35 2.9-0.233 1.367-0.567 2.483-1 3.35v0h-4.75c-0.467-0.9-0.8-2.317-1-4.25zM51.05-5.8v-10h-11v10c1.333 0.533 2.25 1.083 2.75 1.65v0l-0.5 4.15h-11.7l-0.5-4.15c0.433-0.567 1.35-1.117 2.75-1.65v0-22.85c-1.367-0.5-2.283-1.067-2.75-1.7v0l0.5-4.15h11.7l0.5 4.15c-0.533 0.633-1.45 1.2-2.75 1.7v0 7.85h11v-7.85c-1.367-0.5-2.283-1.067-2.75-1.7v0l0.5-4.15h11.7l0.5 4.15c-0.533 0.633-1.45 1.2-2.75 1.7v0 22.85c1.333 0.533 2.25 1.083 2.75 1.65v0l-0.5 4.15h-11.7l-0.5-4.15c0.433-0.567 1.35-1.117 2.75-1.65zM91.25-24.4v0c0 2.267-0.707 4.167-2.12 5.7-1.42 1.533-3.197 2.7-5.33 3.5v0c1.667 0.7 2.767 1.55 3.3 2.55v0l3.65 6.95c1.567 0.533 2.633 1.15 3.2 1.85v0l-0.5 3.85h-8.45l-5.75-12.25c-0.533-1.233-1.15-1.85-1.85-1.85v0h-3.25v8c2.433 0.533 3.95 1.183 4.55 1.95v0l-0.5 4.15h-13.5l-0.5-4.15c0.433-0.567 1.35-1.117 2.75-1.65v0-22.85c-1.367-0.5-2.283-1.067-2.75-1.7v0l0.5-4.15h12.75c4.667 0.067 8.133 0.817 10.4 2.25 2.267 1.433 3.4 4.05 3.4 7.85zM77.1-29.05v0h-2.95v9.5h2.85c2.267 0 3.96-0.343 5.08-1.03 1.113-0.68 1.67-1.903 1.67-3.67 0-1.767-0.567-3.01-1.7-3.73-1.133-0.713-2.783-1.07-4.95-1.07zM96.1-34.5h11.7l0.5 4.15c-0.533 0.633-1.45 1.2-2.75 1.7v0 22.85c1.333 0.533 2.25 1.083 2.75 1.65v0l-0.5 4.15h-11.7l-0.5-4.15c0.433-0.567 1.35-1.117 2.75-1.65v0-22.85c-1.367-0.5-2.283-1.067-2.75-1.7v0zM126.9-29.05v0c-1.133-0.3-2.317-0.45-3.55-0.45-1.233 0-2.223 0.307-2.97 0.92-0.753 0.62-1.13 1.487-1.13 2.6 0 1.12 0.283 1.997 0.85 2.63 0.567 0.633 1.683 1.183 3.35 1.65v0l4.45 1.3c2.4 0.7 4.31 1.79 5.73 3.27 1.413 1.487 2.12 3.663 2.12 6.53v0c0 3.4-1.223 6.083-3.67 8.05-2.453 1.967-5.497 2.95-9.13 2.95v0c-2 0-4.057-0.26-6.17-0.78-2.12-0.513-3.88-1.237-5.28-2.17v0c0-0.2 0-0.583 0-1.15 0-0.567 0.117-1.533 0.35-2.9 0.233-1.367 0.567-2.483 1-3.35v0h4.75c0.533 1.033 0.85 2.417 0.95 4.15v0c1.167 0.5 2.527 0.75 4.08 0.75 1.547 0 2.82-0.367 3.82-1.1 1-0.733 1.5-1.783 1.5-3.15v0c0-0.633-0.05-1.16-0.15-1.58-0.1-0.413-0.407-0.863-0.92-1.35-0.52-0.48-1.263-0.87-2.23-1.17v0l-5.15-1.5c-5.233-1.5-7.85-4.833-7.85-10v0c0-3.033 1.1-5.46 3.3-7.28 2.2-1.813 5.077-2.72 8.63-2.72 3.547 0 7.02 0.8 10.42 2.4v0c0 0.2 0 0.583 0 1.15 0 0.567-0.117 1.533-0.35 2.9-0.233 1.367-0.567 2.483-1 3.35v0h-4.75c-0.567-0.8-0.9-2.117-1-3.95zM137.2-34.45h28v7.15l-3.15 0.4c-0.433-0.333-0.85-1.033-1.25-2.1v0h-6v23.2c1.333 0.533 2.25 1.083 2.75 1.65v0l-0.5 4.15h-11.7l-0.5-4.15c0.433-0.567 1.35-1.117 2.75-1.65v0-23.2h-6c-0.4 1.067-0.817 1.767-1.25 2.1v0l-3.15-0.4zM199.65-5.85v-13c0-1.333 0.117-3.4 0.35-6.2v0l0.1-1.2-0.5-0.05c-0.767 2.833-1.433 5.083-2 6.75v0l-6.65 19.55h-6.65l-7-19.55c-0.633-1.5-1.2-3.367-1.7-5.6v0l-0.3-1.15-0.5 0.05c0.3 2.967 0.45 5.433 0.45 7.4v0 13.15c1.233 0.467 2.15 1.083 2.75 1.85v0l-0.5 3.85h-9.8l-0.5-3.85c0.6-0.767 1.517-1.383 2.75-1.85v0-23.1c-1.367-0.5-2.317-1.117-2.85-1.85v0l0.5-3.85h11.4l7.3 20.15c0.933 2.2 1.533 4.217 1.8 6.05v0l0.15 0.85h0.7c0.133-2.033 0.733-4.333 1.8-6.9v0l6.95-20.15h11.2l0.5 3.85c-0.533 0.733-1.483 1.35-2.85 1.85v0 22.9c1.3 0.5 2.217 1.083 2.75 1.75v0l-0.5 4.15h-11.4l-0.5-4.1c0.533-0.667 1.45-1.25 2.75-1.75zM223.6-34.75h6.85l9.95 28.85c1.4 0.5 2.383 1.083 2.95 1.75v0l-0.5 4.15h-11.7l-0.5-4.15c0.4-0.533 1.2-1.033 2.4-1.5v0l-1.35-4.2h-10l-1.25 4.05c1.167 0.467 2.033 1.017 2.6 1.65v0l-0.5 4.15h-11.4l-0.5-4.15c0.6-0.767 1.717-1.4 3.35-1.9v0zM227-27.75h-0.7c0 2.033-0.417 4.4-1.25 7.1v0l-1.95 6.2h7.15l-1.9-6.1c-0.767-2.333-1.2-4.45-1.3-6.35v0zM260.2-29.05v0c-1.133-0.3-2.317-0.45-3.55-0.45-1.233 0-2.223 0.307-2.97 0.92-0.753 0.62-1.13 1.487-1.13 2.6 0 1.12 0.283 1.997 0.85 2.63 0.567 0.633 1.683 1.183 3.35 1.65v0l4.45 1.3c2.4 0.7 4.31 1.79 5.73 3.27 1.413 1.487 2.12 3.663 2.12 6.53v0c0 3.4-1.223 6.083-3.67 8.05-2.453 1.967-5.497 2.95-9.13 2.95v0c-2 0-4.057-0.26-6.17-0.78-2.12-0.513-3.88-1.237-5.28-2.17v0c0-0.2 0-0.583 0-1.15 0-0.567 0.117-1.533 0.35-2.9 0.233-1.367 0.567-2.483 1-3.35v0h4.75c0.533 1.033 0.85 2.417 0.95 4.15v0c1.167 0.5 2.527 0.75 4.08 0.75 1.547 0 2.82-0.367 3.82-1.1 1-0.733 1.5-1.783 1.5-3.15v0c0-0.633-0.05-1.16-0.15-1.58-0.1-0.413-0.407-0.863-0.92-1.35-0.52-0.48-1.263-0.87-2.23-1.17v0l-5.15-1.5c-5.233-1.5-7.85-4.833-7.85-10v0c0-3.033 1.1-5.46 3.3-7.28 2.2-1.813 5.077-2.72 8.63-2.72 3.547 0 7.02 0.8 10.42 2.4v0c0 0.2 0 0.583 0 1.15 0 0.567-0.117 1.533-0.35 2.9-0.233 1.367-0.567 2.483-1 3.35v0h-4.75c-0.567-0.8-0.9-2.117-1-3.95z" data-fill-palette-color="primary" fill="#ff5858" opacity="1"></path><path d="M2.1 3.8h11.7l0.5 4.15c-0.533 0.633-1.45 1.2-2.75 1.7v0 22.85c1.333 0.533 2.25 1.083 2.75 1.65v0l-0.5 4.15h-11.7l-0.5-4.15c0.433-0.567 1.35-1.117 2.75-1.65v0-22.85c-1.367-0.5-2.283-1.067-2.75-1.7v0zM32.9 9.25v0c-1.133-0.3-2.317-0.45-3.55-0.45-1.233 0-2.223 0.307-2.97 0.92-0.753 0.62-1.13 1.487-1.13 2.6 0 1.12 0.283 1.997 0.85 2.63 0.567 0.633 1.683 1.183 3.35 1.65v0l4.45 1.3c2.4 0.7 4.31 1.79 5.73 3.27 1.413 1.487 2.12 3.663 2.12 6.53v0c0 3.4-1.223 6.083-3.67 8.05-2.453 1.967-5.497 2.95-9.13 2.95v0c-2 0-4.06-0.26-6.18-0.78-2.113-0.513-3.87-1.237-5.27-2.17v0c0-0.2 0-0.583 0-1.15 0-0.567 0.117-1.533 0.35-2.9 0.233-1.367 0.567-2.483 1-3.35v0h4.75c0.533 1.033 0.85 2.417 0.95 4.15v0c1.167 0.5 2.527 0.75 4.08 0.75 1.547 0 2.82-0.367 3.82-1.1 1-0.733 1.5-1.783 1.5-3.15v0c0-0.633-0.05-1.16-0.15-1.58-0.1-0.413-0.407-0.863-0.92-1.35-0.52-0.48-1.263-0.87-2.23-1.17v0l-5.15-1.5c-5.233-1.5-7.85-4.833-7.85-10v0c0-3.033 1.1-5.46 3.3-7.28 2.2-1.813 5.077-2.72 8.63-2.72 3.547 0 7.02 0.8 10.42 2.4v0c0 0.2 0 0.583 0 1.15 0 0.567-0.117 1.533-0.35 2.9-0.233 1.367-0.567 2.483-1 3.35v0h-4.75c-0.567-0.8-0.9-2.117-1-3.95zM76.6 32.5v-10h-11v10c1.333 0.533 2.25 1.083 2.75 1.65v0l-0.5 4.15h-11.7l-0.5-4.15c0.433-0.567 1.35-1.117 2.75-1.65v0-22.85c-1.367-0.5-2.283-1.067-2.75-1.7v0l0.5-4.15h11.7l0.5 4.15c-0.533 0.633-1.45 1.2-2.75 1.7v0 7.85h11v-7.85c-1.367-0.5-2.283-1.067-2.75-1.7v0l0.5-4.15h11.7l0.5 4.15c-0.533 0.633-1.45 1.2-2.75 1.7v0 22.85c1.333 0.533 2.25 1.083 2.75 1.65v0l-0.5 4.15h-11.7l-0.5-4.15c0.433-0.567 1.35-1.117 2.75-1.65zM113.45 29.6v8.7h-23.2l-0.5-4.15c0.433-0.567 1.35-1.117 2.75-1.65v0-22.85c-1.367-0.5-2.283-1.067-2.75-1.7v0l0.5-4.15h22.8v8.7l-3.7 0.45c-0.767-0.667-1.383-1.9-1.85-3.7v0h-7.8v8.6h6.95c0.4-1 0.817-1.7 1.25-2.1v0l3.15 0.35v8.9l-3.15 0.4c-0.433-0.333-0.85-1.033-1.25-2.1v0h-6.95v9.55h8.2c0.433-1.733 1.05-2.967 1.85-3.7v0zM143.75 13.9v0c0 2.267-0.707 4.167-2.12 5.7-1.42 1.533-3.197 2.7-5.33 3.5v0c1.667 0.7 2.767 1.55 3.3 2.55v0l3.65 6.95c1.567 0.533 2.633 1.15 3.2 1.85v0l-0.5 3.85h-8.45l-5.75-12.25c-0.533-1.233-1.15-1.85-1.85-1.85v0h-3.25v8c2.433 0.533 3.95 1.183 4.55 1.95v0l-0.5 4.15h-13.5l-0.5-4.15c0.433-0.567 1.35-1.117 2.75-1.65v0-22.85c-1.367-0.5-2.283-1.067-2.75-1.7v0l0.5-4.15h12.75c4.667 0.067 8.133 0.817 10.4 2.25 2.267 1.433 3.4 4.05 3.4 7.85zM129.6 9.25v0h-2.95v9.5h2.85c2.267 0 3.96-0.343 5.08-1.03 1.113-0.68 1.67-1.903 1.67-3.67 0-1.767-0.567-3.01-1.7-3.73-1.133-0.713-2.783-1.07-4.95-1.07zM171.8 29.6v8.7h-23.2l-0.5-4.15c0.433-0.567 1.35-1.117 2.75-1.65v0-22.85c-1.367-0.5-2.283-1.067-2.75-1.7v0l0.5-4.15h22.8v8.7l-3.7 0.45c-0.767-0.667-1.383-1.9-1.85-3.7v0h-7.8v8.6h6.95c0.4-1 0.817-1.7 1.25-2.1v0l3.15 0.35v8.9l-3.15 0.4c-0.433-0.333-0.85-1.033-1.25-2.1v0h-6.95v9.55h8.2c0.433-1.733 1.05-2.967 1.85-3.7v0z" data-fill-palette-color="primary" fill="#ff5858" opacity="1"></path></g></svg></g></svg></g></svg></g></svg></g><g transform="matrix(1,0,0,1,0,0.28309504765464766)"><svg viewBox="0 0 137.1857662027943 113.23801906185757" height="113.23801906185757" width="137.1857662027943"><g><svg xmlns="http://www.w3.org/2000/svg" xmlns:xlink="http://www.w3.org/1999/xlink" version="1.1" x="0" y="0" viewBox="18.493999481201172 23.993000030517578 63.01400375366211 52.01400375366211" enable-background="new 0 0 100 100" xml:space="preserve" height="113.23801906185757" width="137.1857662027943" class="icon-icon-0" data-fill-palette-color="accent" id="icon-0"><g fill="#7fc37e" data-fill-palette-color="accent"><path fill="#7fc37e" d="M23.991 23.993c-0.586 0-1.116 0.084-1.646 0.252-0.335 0.111-0.642 0.251-0.949 0.418h-0.028c-0.307 0.168-0.586 0.363-0.865 0.587 0 0 0 0-0.028 0-1.2 1.005-1.981 2.54-1.981 4.243v41.014c0 3.043 2.456 5.5 5.498 5.5h52.018c3.015 0 5.498-2.457 5.498-5.5V37.115c0-0.027 0-0.084 0-0.111v-7.511c0-0.949-0.251-1.843-0.67-2.596-0.251-0.475-0.586-0.922-0.949-1.285-0.139-0.139-0.251-0.251-0.391-0.362 0 0 0 0-0.027 0-0.112-0.112-0.251-0.224-0.391-0.308 0 0 0 0-0.028 0-0.14-0.111-0.279-0.195-0.418-0.279-0.028 0-0.028 0-0.028 0-0.307-0.167-0.642-0.307-0.977-0.418 0 0 0 0-0.028 0-0.14-0.057-0.307-0.084-0.475-0.112-0.027 0-0.027 0-0.056 0-0.167-0.027-0.335-0.084-0.502-0.111h-0.028c-0.167 0-0.362-0.028-0.53-0.028H23.991L23.991 23.993zM23.991 25.585h52.018c0.112 0 0.251 0 0.363 0.027 0.027 0 0.027 0 0.027 0 0.14 0 0.252 0.028 0.363 0.028 0.027 0 0.027 0 0.027 0 0.252 0.056 0.503 0.14 0.726 0.224h0.028c0.224 0.111 0.419 0.251 0.642 0.391 0 0 0-0.028 0.028 0 0.195 0.14 0.391 0.279 0.558 0.446 0.168 0.196 0.335 0.392 0.503 0.614 0.279 0.392 0.475 0.866 0.586 1.396 0.056 0.251 0.056 0.502 0.056 0.781v6.729H20.083v-6.729c0-1.089 0.447-2.065 1.145-2.792C21.925 26.004 22.902 25.585 23.991 25.585L23.991 25.585zM34.651 27.567c-1.646 0-2.986 1.34-2.986 2.987 0 1.646 1.339 2.987 2.986 2.987 1.619 0 2.986-1.341 2.986-2.987C37.637 28.907 36.27 27.567 34.651 27.567L34.651 27.567zM65.377 27.567c-1.646 0-2.986 1.34-2.986 2.987 0 1.646 1.34 2.987 2.986 2.987s2.985-1.341 2.985-2.987C68.362 28.907 67.023 27.567 65.377 27.567L65.377 27.567zM34.651 29.158c0.782 0 1.423 0.614 1.423 1.396 0 0.781-0.642 1.396-1.423 1.396-0.809 0-1.423-0.614-1.423-1.396C33.228 29.772 33.842 29.158 34.651 29.158L34.651 29.158zM65.377 29.158c0.781 0 1.395 0.614 1.395 1.396 0 0.781-0.613 1.396-1.395 1.396-0.782 0-1.424-0.614-1.424-1.396C63.953 29.772 64.595 29.158 65.377 29.158L65.377 29.158zM20.056 37.785h18.781v11.363H20.056V37.785L20.056 37.785zM40.428 37.785h19.145v3.825c-5.219 0.279-9.74 3.211-12.168 7.538h-6.977V37.785L40.428 37.785zM61.135 37.785h18.781v11.363h-6.642c-2.428-4.3-6.921-7.259-12.14-7.538V37.785L61.135 37.785zM60.325 43.118c7.34 0 13.284 5.946 13.284 13.262 0 7.343-5.944 13.261-13.284 13.261-7.312 0-13.2-5.918-13.2-13.261C47.125 49.064 53.014 43.118 60.325 43.118L60.325 43.118zM60.27 46.775c-0.391 0.056-0.726 0.419-0.697 0.81v3.741l-2.958-2.848c-0.168-0.168-0.419-0.252-0.67-0.224-0.614 0.056-0.894 0.978-0.447 1.368l4.075 3.881v2.094h-2.037l-3.907-4.076c-0.168-0.167-0.419-0.251-0.642-0.223-0.614 0.027-0.949 0.921-0.503 1.34l2.818 2.959h-3.739c-0.056 0-0.111 0-0.167 0-0.419 0.028-0.754 0.447-0.698 0.865 0.056 0.419 0.475 0.754 0.865 0.698h3.739l-2.818 2.96c-0.335 0.278-0.362 0.865-0.027 1.172 0.307 0.308 0.893 0.252 1.172-0.083l3.879-4.049h2.065v2.066l-4.075 3.908c-0.278 0.279-0.278 0.81 0 1.117 0.279 0.307 0.838 0.307 1.117 0l2.958-2.848v3.769c0 0.419 0.362 0.81 0.781 0.81 0.418 0 0.81-0.391 0.781-0.81v-3.769l2.958 2.848c0.279 0.335 0.865 0.362 1.172 0.056 0.308-0.335 0.279-0.922-0.083-1.173l-4.047-3.908v-2.066H63.2l3.906 4.049c0.252 0.335 0.838 0.391 1.173 0.083 0.307-0.307 0.278-0.894-0.057-1.172l-2.818-2.96h3.739c0.419 0.028 0.81-0.362 0.81-0.781s-0.391-0.782-0.81-0.782h-3.739l2.818-2.959c0.503-0.447 0-1.452-0.642-1.34-0.195 0-0.362 0.111-0.475 0.223L63.2 55.598h-2.065v-2.094l4.047-3.881c0.307-0.279 0.334-0.81 0.027-1.117-0.279-0.307-0.81-0.307-1.116-0.027l-2.958 2.848v-3.741C61.163 47.139 60.716 46.72 60.27 46.775L60.27 46.775zM20.056 50.712h18.781V62.02H20.056V50.712L20.056 50.712zM40.428 50.712h6.223c-0.726 1.759-1.116 3.686-1.116 5.668 0 2.01 0.391 3.908 1.116 5.64h-6.223V50.712L40.428 50.712zM74.056 50.712h5.86V62.02h-5.86c0.726-1.731 1.116-3.63 1.116-5.64C75.172 54.397 74.781 52.471 74.056 50.712L74.056 50.712zM20.056 63.61h18.781v10.833H23.991c-2.177 0-3.935-1.759-3.935-3.937V63.61L20.056 63.61zM40.428 63.61h6.977c2.428 4.3 6.949 7.259 12.168 7.511v3.322H40.428V63.61L40.428 63.61zM73.274 63.61h6.642v6.896c0 2.178-1.73 3.937-3.907 3.937H61.135v-3.322C66.354 70.842 70.847 67.91 73.274 63.61L73.274 63.61z" data-fill-palette-color="accent"></path></g></svg></g></svg></g></svg></g></svg><rect width="395.52" height="80.0850315740823" fill="none" stroke="none" visibility="hidden"></rect></g></svg></g></svg>